<?xml version="1.0" encoding="utf-8"?>
<!-- Generator: Adobe Illustrator 18.0.0, SVG Export Plug-In . SVG Version: 6.00 Build 0)  -->
<!DOCTYPE svg PUBLIC "-//W3C//DTD SVG 1.1//EN" "http://www.w3.org/Graphics/SVG/1.1/DTD/svg11.dtd">
<svg xmlns="http://www.w3.org/2000/svg" xmlns:xlink="http://www.w3.org/1999/xlink" version="1.1" id="Слой_2" x="0px" y="0px" viewBox="-6 167 1246 1210" enable-background="new -6 167 1246 1210" xml:space="preserve">
<path fill="#F35580" stroke="" stroke-width="2" stroke-miterlimit="10" d="M619.9,1370.8c0,0,190.3-125.1,293.6-237.5  S1160,839.7,1201.8,691s52.5-273.7-16.4-384.3c-68.9-110.5-195.7-128.9-268.2-128.9c-68.9,0-139.3,29.5-203,61.7  c-58.9,29.6-94.3,74.4-94.3,74.4h-1.6c0,0-35.3-44.6-94.3-74.4c-63.7-32.2-134.1-61.7-203-61.7c-72.4,0-199.3,18.1-268.2,128.8  s-58,235.6-16.4,384.3s184.9,329.9,288.3,442.3c103.3,112.4,293.6,237.5,293.6,237.5h1.6V1370.8z"/>
</svg>
